HIERARCHY
ROOT Pelvis
{
	OFFSET 0.000000 0.000000 0.000000
	CHANNELS 6 Xposition Yposition Zposition Xrotation Yrotation Zrotation
	JOINT LeftUpLeg_virtual
	{
		OFFSET 0.000000 0.000000 0.000000
		CHANNELS 3 Xrotation Yrotation Zrotation
		JOINT LeftUpLeg
		{
			OFFSET 18.735201 -5.666702 -4.541200
			CHANNELS 3 Xrotation Yrotation Zrotation
			JOINT LeftLeg
			{
				OFFSET -0.021200 -31.938179 0.493100
				CHANNELS 3 Xrotation Yrotation Zrotation
				JOINT LeftFoot
				{
					OFFSET 0.021200 -31.938179 -4.336299
					CHANNELS 3 Xrotation Yrotation Zrotation
					JOINT LeftToeBase
					{
						OFFSET 0.943001 -26.722000 15.023500
						CHANNELS 3 Xrotation Yrotation Zrotation
						End Site
						{
							OFFSET 0 0 0
						}
					}
				}
			}
		}
	}
	JOINT RightUpLeg_virtual
	{
		OFFSET 0.000000 0.000000 0.000000
		CHANNELS 3 Xrotation Yrotation Zrotation
		JOINT RightUpLeg
		{
			OFFSET -18.735201 -5.666702 -4.541200
			CHANNELS 3 Xrotation Yrotation Zrotation
			JOINT RightLeg
			{
				OFFSET 0.018946 -31.938133 0.493100
				CHANNELS 3 Xrotation Yrotation Zrotation
				JOINT RightFoot
				{
					OFFSET -0.018946 -31.938126 -4.336299
					CHANNELS 3 Xrotation Yrotation Zrotation
					JOINT RightToeBase
					{
						OFFSET -0.943001 -26.722004 15.023500
						CHANNELS 3 Xrotation Yrotation Zrotation
						End Site
						{
							OFFSET 0 0 0
						}
					}
				}
			}
		}
	}
	JOINT Hips_virtual
	{
		OFFSET 0.000000 0.000000 0.000000
		CHANNELS 3 Xrotation Yrotation Zrotation
		JOINT Hips
		{
			OFFSET -0.000000 -0.000000 -0.000000
			CHANNELS 3 Xrotation Yrotation Zrotation
			JOINT Spine
			{
				OFFSET 0.000000 10.199997 -0.299500
				CHANNELS 3 Xrotation Yrotation Zrotation
				JOINT Spine1
				{
					OFFSET 0.000000 11.900002 -1.516600
					CHANNELS 3 Xrotation Yrotation Zrotation
					JOINT Spine2
					{
						OFFSET 0.000000 13.600006 -2.842500
						CHANNELS 3 Xrotation Yrotation Zrotation
						JOINT Neck_virtual
						{
							OFFSET 0.000000 0.000000 0.000000
							CHANNELS 3 Xrotation Yrotation Zrotation
							JOINT Neck
							{
								OFFSET 0.000000 9.624100 -2.890100
								CHANNELS 3 Xrotation Yrotation Zrotation
								JOINT Head
								{
									OFFSET 0.000000 14.068802 -1.351900
									CHANNELS 3 Xrotation Yrotation Zrotation
									End Site
									{
										OFFSET 0 0 0
									}
								}
							}
						}
						JOINT LeftShoulder_virtual
						{
							OFFSET 0.000000 0.000000 0.000000
							CHANNELS 3 Xrotation Yrotation Zrotation
							JOINT LeftShoulder
							{
								OFFSET 15.263000 10.923401 -0.547700
								CHANNELS 3 Xrotation Yrotation Zrotation
								JOINT LeftArm
								{
									OFFSET 25.438599 -2.830597 -13.032500
									CHANNELS 3 Xrotation Yrotation Zrotation
									JOINT LeftForeArm
									{
										OFFSET 29.960503 0.000000 0.000000
										CHANNELS 3 Xrotation Yrotation Zrotation
										JOINT LeftHand
										{
											OFFSET 27.849251 0.000000 0.000000
											CHANNELS 3 Xrotation Yrotation Zrotation
											End Site
											{
												OFFSET 0 0 0
											}
										}
									}
								}
							}
						}
						JOINT RightShoulder_virtual
						{
							OFFSET 0.000000 0.000000 0.000000
							CHANNELS 3 Xrotation Yrotation Zrotation
							JOINT RightShoulder
							{
								OFFSET -15.263000 10.923401 -0.547700
								CHANNELS 3 Xrotation Yrotation Zrotation
								JOINT RightArm
								{
									OFFSET -25.438599 -2.830597 -13.032500
									CHANNELS 3 Xrotation Yrotation Zrotation
									JOINT RightForeArm
									{
										OFFSET -29.960503 0.000000 0.000000
										CHANNELS 3 Xrotation Yrotation Zrotation
										JOINT RightHand
										{
											OFFSET -27.849251 0.000000 0.000000
											CHANNELS 3 Xrotation Yrotation Zrotation
											End Site
											{
												OFFSET 0 0 0
											}
										}
									}
								}
							}
						}
					}
				}
			}
		}
	}
}
MOTION
Frames: 8
Frame Time: 0.03333333
-1.128359 16.245506 6.596779 0.000000 0.000000 0.000000 -86.970745 -3.313612 2.114008 -31.566467 17.892919 -7.673754 33.472452 -6.718357 -11.283880 -0.924131 8.929357 10.563844 0.000000 0.000000 0.000000 -86.970745 -3.313612 2.114008 -6.385779 -10.017893 -5.473472 -1.212526 -10.579790 4.760614 19.495522 -3.093457 28.810650 0.000000 0.000000 0.000000 -86.970745 -3.313612 2.114008 0.000000 0.000000 0.000000 0.148158 1.766897 -4.546839 -2.894329 0.722158 -0.032030 0.000000 0.000000 0.000000 -2.892152 0.750137 -0.008814 1.997623 0.181520 0.051849 0.000000 0.000000 0.000000 -2.892152 0.750137 -0.008814 1.575206 -15.462655 -0.386116 21.370842 -1.052524 -73.139127 -179.999964 -42.441549 -179.999964 0.000000 0.000000 0.000000 -2.892152 0.750137 -0.008814 0.537285 6.692242 0.071573 17.297874 6.543545 66.743693 -179.999978 47.031959 179.999991 0.000000 0.000000 0.000000 
-1.129017 16.246109 6.603622 0.000000 0.000000 0.000000 -86.976681 -3.314995 2.113585 -31.578949 17.895038 -7.666705 33.507644 -6.718612 -11.286801 -0.938981 8.906848 10.567689 0.000000 0.000000 0.000000 -86.976681 -3.314995 2.113585 -6.371040 -10.017394 -5.472803 -1.211089 -10.581578 4.760737 19.448718 -3.090524 28.829378 0.000000 0.000000 0.000000 -86.976681 -3.314995 2.113585 0.000000 0.000000 0.000000 0.152119 1.757265 -4.539403 -2.899782 0.719093 -0.031225 0.000000 0.000000 0.000000 -2.897572 0.747077 -0.008095 2.002529 0.174997 0.055675 0.000000 0.000000 0.000000 -2.897572 0.747077 -0.008095 1.572098 -15.451420 -0.406931 21.322447 -0.990329 -73.108364 -179.999964 -42.351087 -179.999964 0.000000 0.000000 0.000000 -2.897572 0.747077 -0.008095 0.542307 6.731885 0.071286 17.280947 6.510337 66.772810 179.999991 47.019668 -179.999964 0.000000 0.000000 0.000000 
-1.129030 16.246704 6.610786 0.000000 0.000000 0.000000 -86.982698 -3.314913 2.112966 -31.591227 17.897351 -7.660222 33.543008 -6.718415 -11.289921 -0.953737 8.883238 10.572242 0.000000 0.000000 0.000000 -86.982698 -3.314913 2.112966 -6.354513 -10.017295 -5.472628 -1.211516 -10.584867 4.761286 19.401648 -3.087455 28.849240 0.000000 0.000000 0.000000 -86.982698 -3.314913 2.112966 0.000000 0.000000 0.000000 0.158691 1.747797 -4.530666 -2.905655 0.716117 -0.029207 0.000000 0.000000 0.000000 -2.903441 0.744094 -0.006158 2.007314 0.168776 0.059844 0.000000 0.000000 0.000000 -2.903441 0.744094 -0.006158 1.568766 -15.437785 -0.427669 21.271668 -0.938635 -73.079992 -179.999964 -42.282276 -179.999978 0.000000 0.000000 0.000000 -2.903441 0.744094 -0.006158 0.546417 6.771665 0.070983 17.268890 6.484048 66.804250 -179.999964 47.003975 179.999964 0.000000 0.000000 0.000000 
-1.128440 16.247169 6.618135 0.000000 0.000000 0.000000 -86.988456 -3.313273 2.112272 -31.603576 17.899960 -7.654335 33.577879 -6.717806 -11.293343 -0.967463 8.858590 10.577809 0.000000 0.000000 0.000000 -86.988456 -3.313273 2.112272 -6.338853 -10.017402 -5.473314 -1.210076 -10.588224 4.762244 19.352634 -3.085248 28.870701 0.000000 0.000000 0.000000 -86.988456 -3.313273 2.112272 0.000000 0.000000 0.000000 0.166814 1.739502 -4.522321 -2.910619 0.713544 -0.026432 0.000000 0.000000 0.000000 -2.908354 0.741506 -0.003457 2.011483 0.162603 0.064468 0.000000 0.000000 0.000000 -2.908354 0.741506 -0.003457 1.565692 -15.422391 -0.445049 21.221010 -0.901432 -73.058285 -179.999991 -42.246373 -179.999978 0.000000 0.000000 0.000000 -2.908354 0.741506 -0.003457 0.549136 6.804088 0.070729 17.259772 6.469271 66.833094 -179.999937 46.986770 179.999937 0.000000 0.000000 0.000000 
-1.127324 16.247353 6.625534 0.000000 0.000000 0.000000 -86.993360 -3.310360 2.111619 -31.616246 17.902969 -7.649213 33.611228 -6.716841 -11.297030 -0.978869 8.833080 10.584596 0.000000 0.000000 0.000000 -86.993360 -3.310360 2.111619 -6.323116 -10.017739 -5.474462 -1.210088 -10.591887 4.763408 19.303525 -3.083792 28.893251 0.000000 0.000000 0.000000 -86.993360 -3.310360 2.111619 0.000000 0.000000 0.000000 0.174869 1.733454 -4.515908 -2.913437 0.711701 -0.023267 0.000000 0.000000 0.000000 -2.911162 0.739642 -0.000360 2.014493 0.156266 0.069424 0.000000 0.000000 0.000000 -2.911162 0.739642 -0.000360 1.562951 -15.406455 -0.458463 21.172526 -0.881065 -73.043600 -179.999950 -42.250317 -179.999950 0.000000 0.000000 0.000000 -2.911162 0.739642 -0.000360 0.549914 6.822526 0.070578 17.251591 6.468497 66.853878 -179.999978 46.969613 179.999978 0.000000 0.000000 0.000000 
-1.125737 16.247231 6.632851 0.000000 0.000000 0.000000 -86.997028 -3.306486 2.111091 -31.629588 17.906422 -7.644810 33.642230 -6.715678 -11.300982 -0.986888 8.806889 10.592846 0.000000 0.000000 0.000000 -86.997028 -3.306486 2.111091 -6.309377 -10.018182 -5.476240 -1.208881 -10.595098 4.764726 19.253335 -3.083314 28.916712 0.000000 0.000000 0.000000 -86.997028 -3.306486 2.111091 0.000000 0.000000 0.000000 0.181117 1.730625 -4.512424 -2.913368 0.710866 -0.020000 0.000000 0.000000 0.000000 -2.911087 0.738785 0.002853 2.016270 0.149630 0.074393 0.000000 0.000000 0.000000 -2.911087 0.738785 0.002853 1.560522 -15.391386 -0.469535 21.128145 -0.878648 -73.032822 -179.999964 -42.295438 -179.999964 0.000000 0.000000 0.000000 -2.911087 0.738785 0.002853 0.548350 6.822701 0.070563 17.242912 6.481579 66.861821 179.999978 46.953825 -179.999991 0.000000 0.000000 0.000000 
-1.123717 16.246803 6.640045 0.000000 0.000000 0.000000 -86.998858 -3.302075 2.110818 -31.644079 17.910520 -7.641236 33.670770 -6.714680 -11.305191 -0.990979 8.780169 10.603047 0.000000 0.000000 0.000000 -86.998858 -3.302075 2.110818 -6.296959 -10.018756 -5.478394 -1.209313 -10.598450 4.766047 19.203734 -3.083183 28.940157 0.000000 0.000000 0.000000 -86.998858 -3.302075 2.110818 0.000000 0.000000 0.000000 0.184152 1.731679 -4.512196 -2.910276 0.711199 -0.016909 0.000000 0.000000 0.000000 -2.907918 0.739097 0.005911 2.016877 0.142631 0.078995 0.000000 0.000000 0.000000 -2.907918 0.739097 0.005911 1.558243 -15.378185 -0.480682 21.089483 -0.893923 -73.021252 -179.999937 -42.377308 -179.999950 0.000000 0.000000 0.000000 -2.907918 0.739097 0.005911 0.544296 6.803498 0.070691 17.232965 6.505901 66.854465 -179.999964 46.940175 179.999950 0.000000 0.000000 0.000000 
-1.121333 16.246101 6.646990 0.000000 0.000000 0.000000 -86.998674 -3.297498 2.110876 -31.659949 17.915282 -7.638536 33.696670 -6.714124 -11.309515 -0.990802 8.753144 10.615369 0.000000 0.000000 0.000000 -86.998674 -3.297498 2.110876 -6.287625 -10.019277 -5.481095 -1.208463 -10.601458 4.767316 19.153577 -3.083374 28.963339 0.000000 0.000000 0.000000 -86.998674 -3.297498 2.110876 0.000000 0.000000 0.000000 0.182961 1.736739 -4.514764 -2.904507 0.712676 -0.014314 0.000000 0.000000 0.000000 -2.902096 0.740548 0.008495 2.016381 0.135283 0.082932 0.000000 0.000000 0.000000 -2.902096 0.740548 0.008495 1.555974 -15.366973 -0.493582 21.057641 -0.924821 -73.005119 179.999964 -42.486461 179.999964 0.000000 0.000000 0.000000 -2.902096 0.740548 0.008495 0.538081 6.767178 0.070941 17.221820 6.537261 66.832472 179.999978 46.928925 -179.999991 0.000000 0.000000 0.000000 
